<?xml version="1.0" encoding="UTF-8"?>
<svg xmlns="http://www.w3.org/2000/svg" xmlns:xlink="http://www.w3.org/1999/xlink" viewBox="0 0 128 128" version="1.1">
<g id="surface1">
<path style=" stroke:none;fill-rule:nonzero;fill:rgb(0%,0%,0%);fill-opacity:1;" d="M 112 52 C 109.789062 52 108 53.789062 108 56 L 108 88 C 108 90.210938 106.210938 92 104 92 L 24 92 C 21.789062 92 20 90.210938 20 88 L 20 56 C 20 53.789062 18.210938 52 16 52 C 13.789062 52 12 53.789062 12 56 L 12 88 C 12.003906 91.179688 13.269531 94.230469 15.519531 96.480469 C 17.769531 98.730469 20.820312 99.996094 24 100 L 104 100 C 107.179688 99.996094 110.230469 98.730469 112.480469 96.480469 C 114.730469 94.230469 115.996094 91.179688 116 88 L 116 56 C 116 53.789062 114.210938 52 112 52 Z M 112 52 "/>
<path style=" stroke:none;fill-rule:nonzero;fill:rgb(0%,0%,0%);fill-opacity:1;" d="M 61.601562 75.199219 C 63.023438 76.265625 64.976562 76.265625 66.398438 75.199219 L 113.640625 39.761719 C 115.160156 38.613281 115.660156 36.558594 114.839844 34.839844 C 114.246094 33.609375 113.445312 32.488281 112.480469 31.519531 C 110.230469 29.269531 107.179688 28.003906 104 28 L 24 28 C 20.820312 28.003906 17.769531 29.269531 15.519531 31.519531 C 14.554688 32.488281 13.753906 33.609375 13.160156 34.839844 C 12.339844 36.558594 12.839844 38.613281 14.359375 39.761719 Z M 24 36 L 104 36 C 104.371094 35.941406 104.75 35.941406 105.121094 36 L 64 67 L 22.878906 36 C 23.25 35.941406 23.628906 35.941406 24 36 Z M 24 36 "/>
</g>
</svg>
