<?xml version="1.0" encoding="UTF-8"?>
<svg xmlns="http://www.w3.org/2000/svg" xmlns:xlink="http://www.w3.org/1999/xlink" viewBox="0 0 32 32" version="1.1">
<g id="surface1">
<path style=" stroke:none;fill-rule:nonzero;fill:rgb(0%,0%,0%);fill-opacity:1;" d="M 16 25 C 11.734375 25 7.699219 23.191406 4.632812 19.910156 C 4.257812 19.507812 4.277344 18.875 4.679688 18.5 C 5.085938 18.121094 5.71875 18.144531 6.09375 18.546875 C 8.777344 21.417969 12.296875 23 16 23 C 20.761719 23 25.148438 20.394531 27.839844 16 C 25.148438 11.605469 20.761719 9 16 9 C 11.0625 9 6.527344 11.800781 3.871094 16.492188 C 3.597656 16.972656 2.984375 17.144531 2.507812 16.871094 C 2.027344 16.597656 1.859375 15.988281 2.128906 15.507812 C 5.148438 10.179688 10.332031 7 16 7 C 21.667969 7 26.851562 10.179688 29.871094 15.507812 C 30.042969 15.8125 30.042969 16.1875 29.871094 16.492188 C 26.851562 21.820312 21.667969 25 16 25 Z M 16 25 "/>
<path style=" stroke:none;fill-rule:nonzero;fill:rgb(0%,0%,0%);fill-opacity:1;" d="M 16 21 C 13.242188 21 11 18.757812 11 16 C 11 13.242188 13.242188 11 16 11 C 18.757812 11 21 13.242188 21 16 C 21 18.757812 18.757812 21 16 21 Z M 16 13 C 14.347656 13 13 14.347656 13 16 C 13 17.652344 14.347656 19 16 19 C 17.652344 19 19 17.652344 19 16 C 19 14.347656 17.652344 13 16 13 Z M 16 13 "/>
</g>
</svg>
