<?xml version="1.0" encoding="UTF-8"?>
<svg xmlns="http://www.w3.org/2000/svg" xmlns:xlink="http://www.w3.org/1999/xlink" viewBox="0 0 128 128" version="1.1">
<g id="surface1">
<path style=" stroke:none;fill-rule:evenodd;fill:rgb(0%,0%,0%);fill-opacity:1;" d="M 64 8 C 33.074219 8 8 33.699219 8 65.425781 C 8 90.800781 24.050781 112.300781 46.300781 119.898438 C 49.101562 120.425781 50.125 118.648438 50.125 117.125 C 50.125 115.75 50.074219 112.148438 50.050781 107.351562 C 34.476562 110.824219 31.175781 99.648438 31.175781 99.648438 C 28.625 93.023438 24.949219 91.25 24.949219 91.25 C 19.875 87.675781 25.324219 87.75 25.324219 87.75 C 30.949219 88.148438 33.898438 93.675781 33.898438 93.675781 C 38.898438 102.449219 47 99.925781 50.199219 98.449219 C 50.699219 94.75 52.148438 92.199219 53.75 90.773438 C 41.324219 89.324219 28.25 84.398438 28.25 62.398438 C 28.25 56.125 30.425781 51 34 47 C 33.425781 45.550781 31.5 39.699219 34.550781 31.800781 C 34.550781 31.800781 39.25 30.25 49.949219 37.675781 C 54.425781 36.398438 59.199219 35.773438 63.976562 35.75 C 68.726562 35.773438 73.523438 36.398438 78 37.675781 C 88.699219 30.25 93.375 31.800781 93.375 31.800781 C 96.425781 39.699219 94.5 45.550781 93.925781 47 C 97.5 51.023438 99.675781 56.148438 99.675781 62.398438 C 99.675781 84.449219 86.574219 89.300781 74.101562 90.726562 C 76.101562 92.5 77.898438 96 77.898438 101.351562 C 77.898438 109.023438 77.824219 115.226562 77.824219 117.101562 C 77.824219 118.625 78.824219 120.425781 81.675781 119.851562 C 103.976562 112.273438 120 90.773438 120 65.425781 C 120 33.699219 94.925781 8 64 8 Z M 64 8 "/>
</g>
</svg>
