<?xml version="1.0" encoding="UTF-8"?>
<svg xmlns="http://www.w3.org/2000/svg" xmlns:xlink="http://www.w3.org/1999/xlink" viewBox="0 0 128 128" version="1.1">
<g id="surface1">
<path style=" stroke:none;fill-rule:evenodd;fill:rgb(0%,0%,0%);fill-opacity:1;" d="M 64 0 C 99.324219 0 128 28.675781 128 64 C 128 99.324219 99.324219 128 64 128 C 28.675781 128 0 99.324219 0 64 C 0 28.675781 28.675781 0 64 0 Z M 43.992188 99.96875 L 43.992188 49.988281 L 27.375 49.988281 L 27.375 99.96875 Z M 103.894531 99.96875 L 103.894531 71.304688 C 103.894531 55.953125 95.699219 48.8125 84.769531 48.8125 C 75.953125 48.8125 72.007812 53.660156 69.796875 57.0625 L 69.796875 49.988281 L 53.183594 49.988281 C 53.40625 54.675781 53.183594 99.96875 53.183594 99.96875 L 69.796875 99.96875 L 69.796875 72.054688 C 69.796875 70.5625 69.902344 69.066406 70.34375 68 C 71.542969 65.015625 74.277344 61.925781 78.867188 61.925781 C 84.875 61.925781 87.285156 66.511719 87.285156 73.226562 L 87.285156 99.96875 Z M 35.796875 25.886719 C 30.109375 25.886719 26.394531 29.625 26.394531 34.523438 C 26.394531 39.320312 29.996094 43.160156 35.574219 43.160156 L 35.683594 43.160156 C 41.476562 43.160156 45.082031 39.320312 45.082031 34.523438 C 44.976562 29.625 41.476562 25.886719 35.796875 25.886719 Z M 35.796875 25.886719 "/>
</g>
</svg>
